<?xml version="1.0" encoding="UTF-8"?>
<svg version="1.1" xmlns="http://www.w3.org/2000/svg" width="512" height="256">
<path d="M0 0 C0.77339218 -0.00671722 1.54678436 -0.01343445 2.34361267 -0.02035522 C4.88246209 -0.03924208 7.42104577 -0.04325489 9.95996094 -0.04541016 C11.73964544 -0.05184533 13.5193289 -0.05857422 15.29901123 -0.06558228 C19.02439829 -0.07753235 22.74969279 -0.08126552 26.47509766 -0.08007812 C31.22374936 -0.07987525 35.97180053 -0.10715522 40.72031021 -0.14162254 C44.3957384 -0.16397967 48.07102417 -0.16791295 51.74651337 -0.16685867 C53.49582739 -0.16920223 55.24514609 -0.17795474 56.9943924 -0.19352341 C70.79672689 -0.30485367 81.4373097 0.78366839 91.78027344 10.88037109 C98.2588781 18.09571238 100.49541402 25.63295064 100.94433594 35.29052734 C100.3398371 44.75278468 96.98305476 53.71394662 89.94433594 60.29052734 C85.17119998 63.98528814 80.74035157 66.52253408 74.94433594 68.29052734 C75.75257813 68.66564453 76.56082031 69.04076172 77.39355469 69.42724609 C88.03135892 74.5215866 88.03135892 74.5215866 91.94433594 79.29052734 C92.62496094 80.03302734 93.30558594 80.77552734 94.00683594 81.54052734 C100.0728391 90.15033828 102.05863086 99.59760661 100.53808594 110.09521484 C97.88162631 120.24668555 91.80734951 127.81238328 82.94433594 133.29052734 C74.51640939 137.8014747 63.12567833 137.78604686 54.06933594 135.22802734 C46.81165062 132.28129797 41.53178628 127.4696158 37.17089844 121.04443359 C36.56068848 120.15183838 35.95047852 119.25924316 35.32177734 118.33959961 C34.63994385 117.32530884 34.63994385 117.32530884 33.94433594 116.29052734 C33.94069031 117.01778519 33.93704468 117.74504303 33.93328857 118.49433899 C33.89521126 125.3930264 33.83813763 132.29133203 33.7604332 139.18967915 C33.7211477 142.73511246 33.68886782 146.28030446 33.67333984 149.82592773 C33.65511077 153.91478109 33.60507833 158.00273619 33.55371094 162.09130859 C33.5524823 163.34696121 33.55125366 164.60261383 33.54998779 165.89631653 C33.36756855 177.00148408 30.96524229 187.18069742 22.94433594 195.29052734 C20.09732096 197.6146212 17.15880366 199.51454776 13.94433594 201.29052734 C13.32945313 201.63212891 12.71457031 201.97373047 12.08105469 202.32568359 C4.18948122 205.95884911 -5.67101899 205.36842114 -13.80566406 202.85302734 C-23.29996644 198.8399717 -29.83345635 191.80016948 -33.98925781 182.45849609 C-37.41145807 172.29217959 -36.42934196 163.00841108 -32.05566406 153.29052734 C-26.96256687 144.51250194 -19.66348062 139.25420103 -10.05566406 136.29052734 C-11.4671875 135.654375 -11.4671875 135.654375 -12.90722656 135.00537109 C-23.34673474 130.1519646 -29.67229397 125.27002646 -34.05566406 114.29052734 C-37.57121547 104.04349399 -36.14914946 95.20234956 -32.05566406 85.29052734 C-27.07502816 76.41257688 -19.35724314 71.84896062 -10.05566406 68.29052734 C-10.68472656 68.08298828 -11.31378906 67.87544922 -11.96191406 67.66162109 C-21.7290774 64.14603067 -27.80298627 58.92168861 -32.86816406 49.83740234 C-37.4104574 40.09537848 -36.80406904 30.57365488 -33.51269531 20.54833984 C-29.9501877 12.58284025 -23.06498201 5.8370888 -15.05566406 2.29052734 C-9.96503963 0.59774055 -5.32756858 -0.00675387 0 0 Z M32.94433594 69.29052734 C32.94433594 76.55052734 32.94433594 83.81052734 32.94433594 91.29052734 C34.05603288 89.62298192 35.15587139 87.94670036 36.20605469 86.23974609 C41.15099106 78.39558675 46.20101678 73.50235887 54.94433594 70.29052734 C54.94433594 69.96052734 54.94433594 69.63052734 54.94433594 69.29052734 C47.68433594 69.29052734 40.42433594 69.29052734 32.94433594 69.29052734 Z " fill="#A258FE" transform="translate(78.0556640625,25.70947265625)"/>
<path d="M0 0 C0.77339218 -0.00671722 1.54678436 -0.01343445 2.34361267 -0.02035522 C4.88246209 -0.03924208 7.42104577 -0.04325489 9.95996094 -0.04541016 C11.73964544 -0.05184533 13.5193289 -0.05857422 15.29901123 -0.06558228 C19.02439829 -0.07753235 22.74969279 -0.08126552 26.47509766 -0.08007812 C31.22374936 -0.07987525 35.97180053 -0.10715522 40.72031021 -0.14162254 C44.3957384 -0.16397967 48.07102417 -0.16791295 51.74651337 -0.16685867 C53.49582739 -0.16920223 55.24514609 -0.17795474 56.9943924 -0.19352341 C70.79672689 -0.30485367 81.4373097 0.78366839 91.78027344 10.88037109 C98.2588781 18.09571238 100.49541402 25.63295064 100.94433594 35.29052734 C100.3398371 44.75278468 96.98305476 53.71394662 89.94433594 60.29052734 C74.39776232 72.32472692 53.86523987 69.52346683 35.17913818 69.31335449 C32.69415587 69.28797191 30.20916995 69.27010456 27.72412109 69.25244141 C22.93000721 69.21577584 18.13660355 69.15491459 13.34292603 69.08099365 C11.4261555 69.05423422 9.50928475 69.03382361 7.59237671 69.02008057 C-5.363385 68.91804555 -16.31758582 68.73318042 -26.23535156 59.33740234 C-32.98074017 51.75245893 -36.74397936 42.8186474 -36.35644531 32.57958984 C-34.82516784 20.92597165 -30.18053099 12.86422398 -20.93847656 5.63427734 C-14.43598449 1.28241495 -7.76800082 -0.00984766 0 0 Z " fill="#FE7161" transform="translate(78.0556640625,25.70947265625)"/>
<path d="M0 0 C0.77927856 0.00201416 1.55855713 0.00402832 2.3614502 0.00610352 C5.24232969 0.01648203 8.12312456 0.04440392 11.00390625 0.0703125 C20.68734375 0.1321875 20.68734375 0.1321875 30.56640625 0.1953125 C30.56640625 22.6353125 30.56640625 45.0753125 30.56640625 68.1953125 C20.48078125 68.3190625 20.48078125 68.3190625 10.19140625 68.4453125 C7.03892334 68.49993652 7.03892334 68.49993652 3.82275391 68.55566406 C2.12533585 68.56736494 0.42790643 68.57755344 -1.26953125 68.5859375 C-2.55307495 68.6166333 -2.55307495 68.6166333 -3.86254883 68.64794922 C-13.09052921 68.65318792 -20.88974133 65.61185689 -27.61328125 59.2421875 C-34.35866986 51.65724409 -38.12190905 42.72343256 -37.734375 32.484375 C-36.20309752 20.83075681 -31.55846067 12.76900913 -22.31640625 5.5390625 C-15.19723083 0.77447817 -8.37627355 -0.10352652 0 0 Z " fill="#F24D1D" transform="translate(79.43359375,25.8046875)"/>
<path d="M0 0 C1.41891037 0.00424484 1.41891037 0.00424484 2.8664856 0.00857544 C5.87205944 0.01972318 8.87732952 0.04481785 11.8828125 0.0703125 C13.92707901 0.08034929 15.97135022 0.08947391 18.015625 0.09765625 C23.01313694 0.11964483 28.0104233 0.15413741 33.0078125 0.1953125 C33.10754988 5.69045874 33.1796867 11.18506476 33.22753906 16.6809082 C33.24751145 18.54591057 33.27469918 20.41085148 33.30957031 22.27563477 C33.54736324 35.32976685 33.41018622 46.792804 24.76953125 57.4140625 C21.5631018 60.65603995 17.98498527 62.99794166 14.0078125 65.1953125 C13.39292969 65.53691406 12.77804688 65.87851563 12.14453125 66.23046875 C4.25295778 69.86363426 -5.60754243 69.2732063 -13.7421875 66.7578125 C-23.23648988 62.74475686 -29.76997978 55.70495463 -33.92578125 46.36328125 C-37.3479815 36.19696474 -36.36586539 26.91319623 -31.9921875 17.1953125 C-24.7701805 4.7480808 -13.93710853 -0.15816406 0 0 Z " fill="#09CF83" transform="translate(77.9921875,161.8046875)"/>
<path d="M0 0 C0.64453125 0.350625 1.2890625 0.70125 1.953125 1.0625 C8.8995841 5.41158743 13.60703999 13.31733892 16 21 C17.86237788 32.80949695 16.82554247 42.0836568 9.79296875 51.89453125 C4.53704895 58.0665155 -1.91808872 62.67685523 -10 64 C-22.16552625 64.94090671 -31.34853365 63.9778591 -40.85546875 56.0859375 C-48.78971503 48.3684739 -51.952917 40.96781043 -52.3125 30.125 C-52.06619781 18.62123898 -48.04017209 10.64225141 -39.8125 2.75 C-28.59550417 -6.19427118 -12.37816513 -6.86671934 0 0 Z " fill="#1ABBFE" transform="translate(162,98)"/>
<path d="M0 0 C4.28770503 1.64911732 7.51702735 4.02922921 11 7 C11.33 6.01 11.66 5.02 12 4 C16.44468307 0.60979531 21.30230528 -0.66863076 26.828125 -0.3828125 C31.97024989 0.52353325 35.16096463 2.91808598 38.375 7.0625 C41.06749458 11.92970175 41.13293643 15.9603513 41.09765625 21.38671875 C41.0962413 22.20372757 41.09482635 23.02073639 41.09336853 23.86250305 C41.08777294 26.47087268 41.07522129 29.07915634 41.0625 31.6875 C41.05748443 33.45637897 41.05292162 35.22525928 41.04882812 36.99414062 C41.03780496 41.32946019 41.02054338 45.66471552 41 50 C37.7 50 34.4 50 31 50 C30.97494385 48.92516357 30.9498877 47.85032715 30.92407227 46.74291992 C30.82992505 42.75646978 30.72972215 38.77019091 30.62768555 34.78393555 C30.58436438 33.05839035 30.54268727 31.33280307 30.50268555 29.60717773 C30.44491474 27.12731236 30.38123997 24.64765828 30.31640625 22.16796875 C30.29969376 21.39599655 30.28298126 20.62402435 30.26576233 19.82865906 C30.17772105 16.64817067 30.01254805 14.03764416 29 11 C25.37296974 9.79098991 21.75982637 9.21339525 18 10 C15.74847815 11.4756317 15.74847815 11.4756317 14 14 C13.58217401 16.87694498 13.39523722 19.38706996 13.390625 22.265625 C13.37408875 23.05902283 13.35755249 23.85242065 13.34051514 24.66986084 C13.29204384 27.19665269 13.27066713 29.72284281 13.25 32.25 C13.22183943 33.96617609 13.19191188 35.68232416 13.16015625 37.3984375 C13.08628564 41.59890878 13.03670613 45.7990462 13 50 C9.7 50 6.4 50 3 50 C2.98018066 49.0212793 2.96036133 48.04255859 2.93994141 47.03417969 C2.86375376 43.39606403 2.77505705 39.75834147 2.68261719 36.12060547 C2.64438171 34.54744235 2.60951934 32.97419342 2.578125 31.40087891 C2.53235578 29.13673277 2.47438239 26.87317453 2.4140625 24.609375 C2.40251129 23.90818542 2.39096008 23.20699585 2.37905884 22.48455811 C2.26994924 18.85822612 2.05077991 16.05159019 0 13 C-2.69587803 10.90320597 -4.092944 11.00489179 -7.5625 11.1875 C-11.496695 12.11412708 -11.496695 12.11412708 -14 15 C-15.15839043 18.47517129 -15.22801218 21.6727002 -15.31640625 25.29296875 C-15.33718735 25.99899734 -15.35796844 26.70502594 -15.37937927 27.43244934 C-15.44467491 29.68403551 -15.50366647 31.93573662 -15.5625 34.1875 C-15.60570425 35.7155066 -15.64931916 37.24350164 -15.69335938 38.77148438 C-15.80033574 42.51420562 -15.90165922 46.2570423 -16 50 C-19.3 50 -22.6 50 -26 50 C-26 34.16 -26 18.32 -26 2 C-21.66666667 2 -17.33333333 2 -13 2 C-12.36835938 1.67644531 -11.73671875 1.35289063 -11.0859375 1.01953125 C-7.50905123 -0.72872215 -3.89250795 -0.44078923 0 0 Z " fill="#000000" transform="translate(370,104)"/>
<path d="M0 0 C0.33 -0.66 0.66 -1.32 1 -2 C4.3 -2 7.6 -2 11 -2 C11.12420407 5.08001409 11.21462658 12.15938481 11.2746582 19.24023438 C11.29970084 21.6456203 11.333745 24.05093089 11.37719727 26.45605469 C11.4382988 29.92662206 11.46631363 33.39617772 11.48828125 36.8671875 C11.51408768 37.93113739 11.5398941 38.99508728 11.56648254 40.09127808 C11.56917576 47.36749843 10.19411368 52.9640329 6 59 C0.63582782 64.18979816 -4.85760856 66.99124396 -12.375 67.3125 C-17.11864394 67.20797903 -20.7068998 65.99322509 -25 64 C-25.33 63.34 -25.66 62.68 -26 62 C-25.00390625 60.0546875 -25.00390625 60.0546875 -23.5625 57.875 C-23.08941406 57.15054688 -22.61632812 56.42609375 -22.12890625 55.6796875 C-21.57009766 54.84824219 -21.57009766 54.84824219 -21 54 C-19.7625 54.5259375 -19.7625 54.5259375 -18.5 55.0625 C-14.31584642 56.18325542 -11.15654867 56.19125828 -7 55 C-3.55645883 52.82907187 -1.29553896 50.88661689 0 47 C0.44104758 44.33320068 0.73069084 41.6930916 1 39 C0.2575 39.474375 -0.485 39.94875 -1.25 40.4375 C-5.96369699 43.11573693 -10.60253155 43.78559044 -16 43 C-23.02709375 40.7769225 -27.11834292 37.43262361 -30.94140625 31.18359375 C-33.80573189 25.27526152 -33.88985717 18.65591924 -32.3515625 12.3359375 C-29.83586587 5.21888123 -26.07878284 1.42522223 -19.6875 -2.375 C-12.50793842 -4.04466548 -6.49574803 -3.38908593 0 0 Z M-21.3125 12.75 C-23.31035287 16.59771664 -23.53544952 18.71640386 -23 23 C-21.66839673 26.77287593 -20.30911029 28.71296901 -17.375 31.4375 C-12.89062971 33.51359736 -9.66045041 33.67809444 -5 32 C-2.15985141 30.08333531 -0.47150126 28.09349696 1 25 C1.86904167 20.34338505 1.586518 16.45086031 -0.1875 12.0625 C-3.34106898 8.47395599 -5.7169654 7.13746799 -10.5 6.625 C-15.73927592 7.18635099 -17.94903439 8.75020306 -21.3125 12.75 Z " fill="#000000" transform="translate(320,107)"/>
<path d="M0 0 C0.33 -0.99 0.66 -1.98 1 -3 C4.3 -3 7.6 -3 11 -3 C11 12.84 11 28.68 11 45 C7.7 45 4.4 45 1 45 C1 44.01 1 43.02 1 42 C0.46890625 42.27714844 -0.0621875 42.55429688 -0.609375 42.83984375 C-1.66898437 43.38318359 -1.66898437 43.38318359 -2.75 43.9375 C-3.44609375 44.29714844 -4.1421875 44.65679687 -4.859375 45.02734375 C-10.419381 47.55369684 -16.10457676 47.80541058 -21.9375 45.9375 C-28.55707476 43.16113466 -33.52975097 38.82847407 -36.5 32.25 C-39.36827756 23.79882504 -38.79960152 16.23945352 -35.12890625 8.15625 C-32.10187685 2.3745191 -28.70659309 -0.14670345 -23 -3 C-14.65796984 -5.55506401 -7.52225941 -4.07001475 0 0 Z M-24 10 C-27.73846471 14.79290347 -28.65343382 18.57584862 -28.38671875 24.63671875 C-27.61641796 29.34411246 -24.96599652 32.00717024 -21.75 35.3125 C-18.21293319 37.48297281 -15.10111729 38.30210809 -11 38 C-6.30362232 36.70444754 -3.57652964 34.70624881 -0.5 30.9375 C1.79166318 26.19048342 1.77439174 21.13421721 1 16 C-1.0023965 11.995207 -3.17998877 9.3412972 -7 7 C-13.50842286 4.83052571 -18.79138551 5.65519039 -24 10 Z " fill="#000000" transform="translate(458,108)"/>
<path d="M0 0 C12.87 0 25.74 0 39 0 C39 3.3 39 6.6 39 10 C29.43 10 19.86 10 10 10 C10 15.94 10 21.88 10 28 C17.26 28 24.52 28 32 28 C32 31.3 32 34.6 32 38 C24.74 38 17.48 38 10 38 C10 49.22 10 60.44 10 72 C6.7 72 3.4 72 0 72 C0 48.24 0 24.48 0 0 Z " fill="#000000" transform="translate(215,82)"/>
<path d="M0 0 C2.97 0 5.94 0 9 0 C9 16.17 9 32.34 9 49 C6.03 49 3.06 49 0 49 C0 32.83 0 16.66 0 0 Z " fill="#000000" transform="translate(265,105)"/>
<path d="M0 0 C1.875 1.125 1.875 1.125 3 3 C3.39015561 6.12124489 3.55877549 8.09975061 1.875 10.8125 C-0.66676215 12.42228269 -3.0398108 12.67109009 -6 13 C-8.0625 10.875 -8.0625 10.875 -10 8 C-9.9375 4.8125 -9.9375 4.8125 -9 2 C-5.53076119 -0.31282587 -4.07794425 -0.42478586 0 0 Z " fill="#000000" transform="translate(273,85)"/>
</svg>
